<mxfile host="app.diagrams.net" agent="Mozilla/5.0 (Windows NT 10.0; Win64; x64) AppleWebKit/537.36 (KHTML, like Gecko) Chrome/138.0.0.0 Safari/537.36" version="28.0.7">
  <diagram name="Page-1" id="msBQlJJkRIUH8u7fDOR1">
    <mxGraphModel dx="749" dy="430" grid="1" gridSize="10" guides="1" tooltips="1" connect="1" arrows="1" fold="1" page="1" pageScale="1" pageWidth="850" pageHeight="1100" math="0" shadow="0">
      <root>
        <mxCell id="0" />
        <mxCell id="1" parent="0" />
        <mxCell id="VtvOTdMDYxQ4s0ZcNRzu-1" value="&lt;font style=&quot;font-size: 18px;&quot; face=&quot;Times New Roman&quot;&gt;Food Delivery App&lt;/font&gt;" style="rounded=0;whiteSpace=wrap;html=1;fillColor=light-dark(#FFFFFF,#7EFF64);fontColor=#ffffff;strokeColor=#005700;" vertex="1" parent="1">
          <mxGeometry x="310" y="40" width="250" height="40" as="geometry" />
        </mxCell>
        <mxCell id="VtvOTdMDYxQ4s0ZcNRzu-4" value="" style="edgeStyle=orthogonalEdgeStyle;rounded=0;orthogonalLoop=1;jettySize=auto;html=1;" edge="1" parent="1" source="VtvOTdMDYxQ4s0ZcNRzu-2" target="VtvOTdMDYxQ4s0ZcNRzu-3">
          <mxGeometry relative="1" as="geometry" />
        </mxCell>
        <mxCell id="VtvOTdMDYxQ4s0ZcNRzu-2" value="&lt;font style=&quot;font-size: 22px; color: light-dark(rgb(0, 0, 0), rgb(24, 24, 24));&quot; face=&quot;Times New Roman&quot;&gt;Start&lt;/font&gt;" style="ellipse;whiteSpace=wrap;html=1;fillColor=light-dark(#DAE8FC,#45FFF4);strokeColor=light-dark(#6C8EBF,#121820);gradientColor=none;" vertex="1" parent="1">
          <mxGeometry x="190" y="120" width="120" height="80" as="geometry" />
        </mxCell>
        <mxCell id="VtvOTdMDYxQ4s0ZcNRzu-6" value="" style="edgeStyle=orthogonalEdgeStyle;rounded=0;orthogonalLoop=1;jettySize=auto;html=1;" edge="1" parent="1" source="VtvOTdMDYxQ4s0ZcNRzu-3" target="VtvOTdMDYxQ4s0ZcNRzu-5">
          <mxGeometry relative="1" as="geometry" />
        </mxCell>
        <mxCell id="VtvOTdMDYxQ4s0ZcNRzu-18" style="edgeStyle=orthogonalEdgeStyle;rounded=0;orthogonalLoop=1;jettySize=auto;html=1;entryX=0;entryY=0.5;entryDx=0;entryDy=0;" edge="1" parent="1" source="VtvOTdMDYxQ4s0ZcNRzu-3" target="VtvOTdMDYxQ4s0ZcNRzu-17">
          <mxGeometry relative="1" as="geometry" />
        </mxCell>
        <mxCell id="VtvOTdMDYxQ4s0ZcNRzu-3" value="&lt;font face=&quot;Times New Roman&quot; style=&quot;font-size: 15px;&quot;&gt;New User&amp;nbsp;&lt;/font&gt;&lt;div&gt;&lt;font face=&quot;Times New Roman&quot; style=&quot;font-size: 15px;&quot;&gt;Sign Up&lt;/font&gt;&lt;/div&gt;" style="rhombus;whiteSpace=wrap;html=1;fillColor=#e51400;strokeColor=#B20000;fontColor=#ffffff;" vertex="1" parent="1">
          <mxGeometry x="195" y="250" width="110" height="100" as="geometry" />
        </mxCell>
        <mxCell id="VtvOTdMDYxQ4s0ZcNRzu-8" value="" style="edgeStyle=orthogonalEdgeStyle;rounded=0;orthogonalLoop=1;jettySize=auto;html=1;" edge="1" parent="1" source="VtvOTdMDYxQ4s0ZcNRzu-5" target="VtvOTdMDYxQ4s0ZcNRzu-7">
          <mxGeometry relative="1" as="geometry" />
        </mxCell>
        <mxCell id="VtvOTdMDYxQ4s0ZcNRzu-20" value="" style="edgeStyle=orthogonalEdgeStyle;rounded=0;orthogonalLoop=1;jettySize=auto;html=1;" edge="1" parent="1" source="VtvOTdMDYxQ4s0ZcNRzu-5" target="VtvOTdMDYxQ4s0ZcNRzu-19">
          <mxGeometry relative="1" as="geometry" />
        </mxCell>
        <mxCell id="VtvOTdMDYxQ4s0ZcNRzu-5" value="&lt;font face=&quot;Times New Roman&quot; style=&quot;font-size: 15px;&quot;&gt;Login into your account&lt;/font&gt;" style="shape=parallelogram;perimeter=parallelogramPerimeter;whiteSpace=wrap;html=1;fixedSize=1;fillColor=#e51400;fontColor=#ffffff;strokeColor=#B20000;" vertex="1" parent="1">
          <mxGeometry x="162.51" y="400" width="175" height="60" as="geometry" />
        </mxCell>
        <mxCell id="VtvOTdMDYxQ4s0ZcNRzu-10" value="" style="edgeStyle=orthogonalEdgeStyle;rounded=0;orthogonalLoop=1;jettySize=auto;html=1;" edge="1" parent="1" source="VtvOTdMDYxQ4s0ZcNRzu-7" target="VtvOTdMDYxQ4s0ZcNRzu-9">
          <mxGeometry relative="1" as="geometry" />
        </mxCell>
        <mxCell id="VtvOTdMDYxQ4s0ZcNRzu-7" value="&lt;font style=&quot;font-size: 11px;&quot; face=&quot;Times New Roman&quot;&gt;User Recognisded&amp;nbsp;&lt;/font&gt;&lt;div&gt;&lt;font style=&quot;font-size: 11px;&quot; face=&quot;Times New Roman&quot;&gt;proceed with order&lt;/font&gt;&lt;/div&gt;" style="rhombus;whiteSpace=wrap;html=1;fillColor=#e51400;fontColor=#ffffff;strokeColor=#B20000;" vertex="1" parent="1">
          <mxGeometry x="185.01" y="510" width="130" height="100" as="geometry" />
        </mxCell>
        <mxCell id="VtvOTdMDYxQ4s0ZcNRzu-12" value="" style="edgeStyle=orthogonalEdgeStyle;rounded=0;orthogonalLoop=1;jettySize=auto;html=1;" edge="1" parent="1" source="VtvOTdMDYxQ4s0ZcNRzu-9" target="VtvOTdMDYxQ4s0ZcNRzu-11">
          <mxGeometry relative="1" as="geometry" />
        </mxCell>
        <mxCell id="VtvOTdMDYxQ4s0ZcNRzu-9" value="&lt;font style=&quot;font-size: 13px;&quot; face=&quot;Times New Roman&quot;&gt;Proceed for the payment for selected food items&lt;/font&gt;" style="shape=parallelogram;perimeter=parallelogramPerimeter;whiteSpace=wrap;html=1;fixedSize=1;fillColor=#e51400;fontColor=#ffffff;strokeColor=#B20000;" vertex="1" parent="1">
          <mxGeometry x="154.38" y="670" width="191.25" height="70" as="geometry" />
        </mxCell>
        <mxCell id="VtvOTdMDYxQ4s0ZcNRzu-14" value="" style="edgeStyle=orthogonalEdgeStyle;rounded=0;orthogonalLoop=1;jettySize=auto;html=1;" edge="1" parent="1" source="VtvOTdMDYxQ4s0ZcNRzu-11" target="VtvOTdMDYxQ4s0ZcNRzu-13">
          <mxGeometry relative="1" as="geometry" />
        </mxCell>
        <mxCell id="VtvOTdMDYxQ4s0ZcNRzu-11" value="&lt;font style=&quot;font-size: 14px;&quot; face=&quot;Times New Roman&quot;&gt;Complete the payment&lt;/font&gt;" style="shape=parallelogram;perimeter=parallelogramPerimeter;whiteSpace=wrap;html=1;fixedSize=1;fillColor=#e51400;fontColor=#ffffff;strokeColor=#B20000;" vertex="1" parent="1">
          <mxGeometry x="175" y="790" width="150" height="60" as="geometry" />
        </mxCell>
        <mxCell id="VtvOTdMDYxQ4s0ZcNRzu-16" value="" style="edgeStyle=orthogonalEdgeStyle;rounded=0;orthogonalLoop=1;jettySize=auto;html=1;" edge="1" parent="1" source="VtvOTdMDYxQ4s0ZcNRzu-13" target="VtvOTdMDYxQ4s0ZcNRzu-15">
          <mxGeometry relative="1" as="geometry" />
        </mxCell>
        <mxCell id="VtvOTdMDYxQ4s0ZcNRzu-13" value="&lt;font style=&quot;font-size: 15px;&quot; face=&quot;Times New Roman&quot;&gt;Provide the delivery tracking link&lt;/font&gt;" style="rounded=0;whiteSpace=wrap;html=1;fillColor=#e51400;fontColor=#ffffff;strokeColor=#B20000;" vertex="1" parent="1">
          <mxGeometry x="179.99" y="900" width="140.01" height="60" as="geometry" />
        </mxCell>
        <mxCell id="VtvOTdMDYxQ4s0ZcNRzu-15" value="&lt;font style=&quot;font-size: 20px; color: light-dark(rgb(0, 0, 0), rgb(24, 24, 24));&quot; face=&quot;Times New Roman&quot;&gt;End&lt;/font&gt;" style="ellipse;whiteSpace=wrap;html=1;fillColor=light-dark(#DAE8FC,#45FFF4);gradientColor=none;strokeColor=#6c8ebf;" vertex="1" parent="1">
          <mxGeometry x="190.01" y="1010" width="120" height="80" as="geometry" />
        </mxCell>
        <mxCell id="VtvOTdMDYxQ4s0ZcNRzu-17" value="&lt;font face=&quot;Times New Roman&quot; style=&quot;font-size: 13px;&quot;&gt;Give your details like moblie number and email id etc..&lt;/font&gt;" style="rounded=0;whiteSpace=wrap;html=1;fillColor=#e51400;fontColor=#ffffff;strokeColor=#B20000;" vertex="1" parent="1">
          <mxGeometry x="450" y="265" width="160" height="70" as="geometry" />
        </mxCell>
        <mxCell id="VtvOTdMDYxQ4s0ZcNRzu-19" value="&lt;font face=&quot;Times New Roman&quot; style=&quot;font-size: 14px; color: light-dark(rgb(0, 0, 0), rgb(24, 24, 24));&quot;&gt;Store the previous orders&lt;/font&gt;&lt;div&gt;&lt;font face=&quot;Times New Roman&quot; style=&quot;font-size: 14px; color: light-dark(rgb(0, 0, 0), rgb(24, 24, 24));&quot;&gt;&lt;font style=&quot;&quot;&gt;data&amp;nbsp;&lt;/font&gt;&lt;span style=&quot;background-color: transparent;&quot;&gt;in my account&lt;/span&gt;&lt;/font&gt;&lt;/div&gt;" style="shape=parallelogram;perimeter=parallelogramPerimeter;whiteSpace=wrap;html=1;fixedSize=1;fillColor=#e51400;fontColor=#ffffff;strokeColor=#B20000;" vertex="1" parent="1">
          <mxGeometry x="430" y="400" width="180" height="60" as="geometry" />
        </mxCell>
        <mxCell id="VtvOTdMDYxQ4s0ZcNRzu-22" value="" style="endArrow=none;html=1;rounded=0;" edge="1" parent="1">
          <mxGeometry width="50" height="50" relative="1" as="geometry">
            <mxPoint x="310" y="560" as="sourcePoint" />
            <mxPoint x="680" y="560" as="targetPoint" />
          </mxGeometry>
        </mxCell>
        <mxCell id="VtvOTdMDYxQ4s0ZcNRzu-23" value="" style="endArrow=none;html=1;rounded=0;" edge="1" parent="1">
          <mxGeometry width="50" height="50" relative="1" as="geometry">
            <mxPoint x="680" y="560" as="sourcePoint" />
            <mxPoint x="680" y="300" as="targetPoint" />
          </mxGeometry>
        </mxCell>
        <mxCell id="VtvOTdMDYxQ4s0ZcNRzu-27" value="" style="endArrow=classic;html=1;rounded=0;entryX=1;entryY=0.5;entryDx=0;entryDy=0;" edge="1" parent="1" target="VtvOTdMDYxQ4s0ZcNRzu-17">
          <mxGeometry width="50" height="50" relative="1" as="geometry">
            <mxPoint x="680" y="300" as="sourcePoint" />
            <mxPoint x="730" y="250" as="targetPoint" />
          </mxGeometry>
        </mxCell>
        <mxCell id="VtvOTdMDYxQ4s0ZcNRzu-29" value="Yes" style="text;html=1;align=center;verticalAlign=middle;resizable=0;points=[];autosize=1;strokeColor=none;fillColor=none;" vertex="1" parent="1">
          <mxGeometry x="350" y="270" width="40" height="30" as="geometry" />
        </mxCell>
        <mxCell id="VtvOTdMDYxQ4s0ZcNRzu-30" value="No" style="text;html=1;align=center;verticalAlign=middle;resizable=0;points=[];autosize=1;strokeColor=none;fillColor=none;" vertex="1" parent="1">
          <mxGeometry x="210" y="360" width="40" height="30" as="geometry" />
        </mxCell>
        <mxCell id="VtvOTdMDYxQ4s0ZcNRzu-33" value="No" style="text;html=1;align=center;verticalAlign=middle;resizable=0;points=[];autosize=1;strokeColor=none;fillColor=none;" vertex="1" parent="1">
          <mxGeometry x="450" y="535" width="40" height="30" as="geometry" />
        </mxCell>
        <mxCell id="VtvOTdMDYxQ4s0ZcNRzu-34" value="Yes" style="text;html=1;align=center;verticalAlign=middle;resizable=0;points=[];autosize=1;strokeColor=none;fillColor=none;" vertex="1" parent="1">
          <mxGeometry x="215" y="628" width="40" height="30" as="geometry" />
        </mxCell>
      </root>
    </mxGraphModel>
  </diagram>
</mxfile>
